<?xml version="1.0" encoding="utf-8"?>
<!-- Generator: Adobe Illustrator 22.0.0, SVG Export Plug-In . SVG Version: 6.00 Build 0)  -->
<svg version="1.1" xmlns="http://www.w3.org/2000/svg" xmlns:xlink="http://www.w3.org/1999/xlink" x="0px" y="0px"
	 viewBox="0 0 256 256" style="enable-background:new 0 0 256 256;" xml:space="preserve">
<style type="text/css">
	.st0{display:none;}
	.st1{display:inline;}
	.st2{fill:none;stroke:#6B1D1D;stroke-width:0.5;stroke-miterlimit:10;}
	.st3{fill:#3A312A;}
	.st4{fill:#87796F;}
	.st5{fill:#D5DE58;}
	.st6{fill:#695B51;}
	.st7{fill:#FCE8CB;}
	.st8{fill:#F16C7A;}
	.st9{fill:#8AC6DD;}
	.st10{fill:#DECAAD;}
	.st11{fill:#D6DF58;}
	.st12{fill-rule:evenodd;clip-rule:evenodd;fill:#FCE8CB;}
	.st13{fill:#F5978A;}
	.st14{fill:#D7E057;}
	.st15{fill-rule:evenodd;clip-rule:evenodd;fill:#87796F;}
	.st16{fill:#6CA8BF;}
	.st17{fill:#B9C239;}
	.st18{fill:#D34E5C;}
	.st19{fill:#FAE6CA;}
	.st20{fill:#F8E4C8;}
	.st21{fill:#8AC5DC;}
	.st22{fill:#EF6D7A;}
	.st23{fill:#EB6E7A;}
	.st24{fill:#89C4DB;}
	.st25{fill-rule:evenodd;clip-rule:evenodd;fill:#F16C7A;}
	.st26{fill:#F7E3C7;}
	.st27{fill:#F6E2C6;}
	.st28{fill:#ED6E7A;}
	.st29{fill:#8AC3DA;}
	.st30{fill:#D5DC57;}
	.st31{fill-rule:evenodd;clip-rule:evenodd;fill:#D7E057;}
	.st32{fill-rule:evenodd;clip-rule:evenodd;fill:#F8E4C8;}
	.st33{fill:#D4DB56;}
	.st34{fill:#F59689;}
	.st35{fill:#DDC9AC;}
	.st36{fill:#D24E5C;}
	.st37{fill:#6A5C52;}
	.st38{fill:#6CA6BE;}
	.st39{fill:#B8C136;}
	.st40{fill-rule:evenodd;clip-rule:evenodd;fill:#FAE6CA;}
</style>
<g id="Layer_2" class="st0">
	<g class="st1">
		<g>
			<line class="st2" x1="0" y1="4.829" x2="256" y2="4.829"/>
			<line class="st2" x1="0" y1="16.56" x2="256" y2="16.56"/>
			<line class="st2" x1="0" y1="28.29" x2="256" y2="28.29"/>
			<line class="st2" x1="0" y1="40.021" x2="256" y2="40.021"/>
			<line class="st2" x1="0" y1="51.751" x2="256" y2="51.751"/>
			<line class="st2" x1="0" y1="63.482" x2="256" y2="63.482"/>
			<line class="st2" x1="0" y1="75.213" x2="256" y2="75.213"/>
			<line class="st2" x1="0" y1="86.943" x2="256" y2="86.943"/>
			<line class="st2" x1="0" y1="98.674" x2="256" y2="98.674"/>
			<line class="st2" x1="0" y1="110.404" x2="256" y2="110.404"/>
			<line class="st2" x1="0" y1="122.135" x2="256" y2="122.135"/>
			<line class="st2" x1="0" y1="133.865" x2="256" y2="133.865"/>
			<line class="st2" x1="0" y1="145.596" x2="256" y2="145.596"/>
			<line class="st2" x1="0" y1="157.326" x2="256" y2="157.326"/>
			<line class="st2" x1="0" y1="169.057" x2="256" y2="169.057"/>
			<line class="st2" x1="0" y1="180.788" x2="256" y2="180.788"/>
			<line class="st2" x1="0" y1="192.518" x2="256" y2="192.518"/>
			<line class="st2" x1="0" y1="204.249" x2="256" y2="204.249"/>
			<line class="st2" x1="0" y1="215.979" x2="256" y2="215.979"/>
			<line class="st2" x1="0" y1="227.71" x2="256" y2="227.71"/>
			<line class="st2" x1="0" y1="239.44" x2="256" y2="239.44"/>
			<line class="st2" x1="0" y1="251.171" x2="256" y2="251.171"/>
		</g>
		<g>
			<line class="st2" x1="251.171" y1="0" x2="251.171" y2="256"/>
			<line class="st2" x1="239.44" y1="0" x2="239.44" y2="256"/>
			<line class="st2" x1="227.71" y1="0" x2="227.71" y2="256"/>
			<line class="st2" x1="215.979" y1="0" x2="215.979" y2="256"/>
			<line class="st2" x1="204.249" y1="0" x2="204.249" y2="256"/>
			<line class="st2" x1="192.518" y1="0" x2="192.518" y2="256"/>
			<line class="st2" x1="180.787" y1="0" x2="180.787" y2="256"/>
			<line class="st2" x1="169.057" y1="0" x2="169.057" y2="256"/>
			<line class="st2" x1="157.326" y1="0" x2="157.326" y2="256"/>
			<line class="st2" x1="145.596" y1="0" x2="145.596" y2="256"/>
			<line class="st2" x1="133.865" y1="0" x2="133.865" y2="256"/>
			<line class="st2" x1="122.135" y1="0" x2="122.135" y2="256"/>
			<line class="st2" x1="110.404" y1="0" x2="110.404" y2="256"/>
			<line class="st2" x1="98.674" y1="0" x2="98.674" y2="256"/>
			<line class="st2" x1="86.943" y1="0" x2="86.943" y2="256"/>
			<line class="st2" x1="75.212" y1="0" x2="75.212" y2="256"/>
			<line class="st2" x1="63.482" y1="0" x2="63.482" y2="256"/>
			<line class="st2" x1="51.751" y1="0" x2="51.751" y2="256"/>
			<line class="st2" x1="40.021" y1="0" x2="40.021" y2="256"/>
			<line class="st2" x1="28.29" y1="0" x2="28.29" y2="256"/>
			<line class="st2" x1="16.56" y1="0" x2="16.56" y2="256"/>
			<line class="st2" x1="4.829" y1="0" x2="4.829" y2="256"/>
		</g>
	</g>
</g>
<g id="Layer_1">
	<g>
		<path class="st3" d="M128.22,228.962c-55.807,0-101.21-45.402-101.21-101.209c0-25.506,9.519-49.871,26.804-68.605
			c17.183-18.625,40.499-30.068,65.651-32.225c0.825-0.064,1.551,0.541,1.623,1.367c0.071,0.825-0.541,1.552-1.367,1.623
			c-24.404,2.092-47.028,13.197-63.703,31.269c-16.771,18.178-26.008,41.82-26.008,66.57c0,54.153,44.057,98.209,98.21,98.209
			c54.153,0,98.209-44.057,98.209-98.209c0-51.57-40.269-94.611-91.676-97.988c-0.827-0.054-1.453-0.768-1.398-1.595
			c0.054-0.827,0.779-1.461,1.595-1.398c52.979,3.48,94.479,47.836,94.479,100.981C229.429,183.56,184.027,228.962,128.22,228.962z"
			/>
		<path class="st7" d="M68.496,169.324h38.078V150.96c0-11.192-9.072-20.265-20.265-20.265H72.92v-8.702
			c-3.703,2.567-7.535,4.082-11.253,4.082c-3.567,0-7.331-1.529-11.019-4.127h-0.227v8.747H37.024
			c-11.192,0-20.265,9.072-20.265,20.265v18.364h36.434H68.496z"/>
		<path class="st3" d="M106.574,170.824H68.496c-0.829,0-1.5-0.672-1.5-1.5c0-0.828,0.671-1.5,1.5-1.5h36.578V150.96
			c0-10.347-8.418-18.765-18.765-18.765H72.92c-0.829,0-1.5-0.672-1.5-1.5v-5.982c-3.344,1.901-6.615,2.863-9.753,2.863
			c-3.093,0-6.362-1.013-9.746-3.016v6.135c0,0.828-0.671,1.5-1.5,1.5H37.024c-10.347,0-18.765,8.418-18.765,18.765v16.864h34.934
			c0.829,0,1.5,0.672,1.5,1.5c0,0.828-0.671,1.5-1.5,1.5H16.759c-0.829,0-1.5-0.672-1.5-1.5V150.96
			c0-12.001,9.764-21.765,21.765-21.765h11.896v-7.247c0-0.829,0.671-1.5,1.5-1.5h0.227c0.309,0,0.611,0.096,0.864,0.274
			c3.63,2.557,7.046,3.854,10.155,3.854c3.249,0,6.748-1.284,10.399-3.815c0.459-0.318,1.056-0.354,1.55-0.096
			c0.494,0.259,0.804,0.771,0.804,1.329v7.202h11.889c12.001,0,21.765,9.764,21.765,21.765v18.364
			C108.074,170.152,107.402,170.824,106.574,170.824z"/>
		<path class="st9" d="M68.496,169.326h38.078v-18.372c0-11.193-9.072-20.266-20.265-20.266h-3.203l0.083,0.061l-13.926,18.47
			l-7.187-5.415l-7.187,5.415l-13.926-18.47l0.083-0.061h-4.021c-11.193,0-20.265,9.073-20.265,20.266v18.372h36.434H68.496z"/>
		<path class="st3" d="M106.574,170.826H68.496c-0.829,0-1.5-0.672-1.5-1.5c0-0.828,0.671-1.5,1.5-1.5h36.578v-16.872
			c0-10.348-8.418-18.766-18.765-18.766h-2.326L70.46,150.123c-0.5,0.66-1.44,0.792-2.1,0.295l-6.284-4.734l-6.284,4.734
			c-0.66,0.497-1.602,0.365-2.1-0.295l-13.523-17.934h-3.144c-10.347,0-18.765,8.418-18.765,18.766v16.872h34.934
			c0.829,0,1.5,0.672,1.5,1.5c0,0.828-0.671,1.5-1.5,1.5H16.759c-0.829,0-1.5-0.672-1.5-1.5v-18.372
			c0-12.002,9.764-21.766,21.765-21.766h4.021c0.648,0,1.223,0.416,1.425,1.031c0.007,0.023,0.014,0.044,0.02,0.066l12.693,16.834
			l5.989-4.512c0.534-0.402,1.271-0.402,1.805,0l5.989,4.512l12.693-16.834c0.006-0.021,0.013-0.043,0.02-0.066
			c0.202-0.615,0.777-1.031,1.425-1.031h3.204c12.001,0,21.765,9.764,21.765,21.766v18.372
			C108.074,170.154,107.402,170.826,106.574,170.826z"/>
		
			<ellipse transform="matrix(0.6656 -0.7463 0.7463 0.6656 -51.0617 46.9563)" class="st12" cx="26.869" cy="80.459" rx="7.974" ry="7.974"/>
		<path class="st3" d="M26.869,89.933c-5.224,0-9.474-4.25-9.474-9.474c0-5.224,4.25-9.474,9.474-9.474
			c5.224,0,9.474,4.25,9.474,9.474C36.343,85.683,32.093,89.933,26.869,89.933z M26.869,73.985c-3.57,0-6.474,2.904-6.474,6.474
			c0,3.569,2.904,6.474,6.474,6.474c3.569,0,6.474-2.904,6.474-6.474C33.343,76.89,30.438,73.985,26.869,73.985z"/>
		<path class="st12" d="M104.44,80.459c0,4.404-3.57,7.974-7.974,7.974c-4.404,0-7.974-3.57-7.974-7.974s3.57-7.974,7.974-7.974
			C100.87,72.485,104.44,76.055,104.44,80.459z"/>
		<path class="st3" d="M96.467,89.933c-5.224,0-9.474-4.25-9.474-9.474c0-5.224,4.25-9.474,9.474-9.474
			c5.224,0,9.474,4.25,9.474,9.474C105.94,85.683,101.69,89.933,96.467,89.933z M96.467,73.985c-3.57,0-6.474,2.904-6.474,6.474
			c0,3.569,2.904,6.474,6.474,6.474c3.569,0,6.474-2.904,6.474-6.474C102.94,76.89,100.036,73.985,96.467,73.985z"/>
		<path class="st7" d="M97.016,76.589c0,19.522-18.802,49.488-35.349,49.488c-15.795,0-35.349-29.966-35.349-49.488
			c0-19.523,15.826-35.349,35.349-35.349C81.19,41.24,97.016,57.066,97.016,76.589z"/>
		<path class="st3" d="M61.667,127.577c-7.845,0-16.896-6.587-24.831-18.07c-7.413-10.727-12.018-23.34-12.018-32.917
			c0-20.319,16.53-36.849,36.849-36.849c20.319,0,36.849,16.53,36.849,36.849c0,9.684-4.495,22.293-11.73,32.91
			C78.956,120.987,69.801,127.577,61.667,127.577z M61.667,42.74c-18.664,0-33.849,15.185-33.849,33.849
			c0,18.234,18.91,47.988,33.849,47.988c7.021,0,15.484-6.269,22.64-16.768c6.914-10.145,11.209-22.107,11.209-31.22
			C95.517,57.924,80.332,42.74,61.667,42.74z"/>
		<path class="st3" d="M52.638,76.19c0,1.906-1.545,3.45-3.45,3.45c-1.905,0-3.45-1.545-3.45-3.45c0-1.905,1.545-3.45,3.45-3.45
			C51.093,72.739,52.638,74.284,52.638,76.19z"/>
		<path class="st3" d="M77.598,76.19c0,1.906-1.545,3.45-3.45,3.45c-1.905,0-3.45-1.545-3.45-3.45c0-1.905,1.545-3.45,3.45-3.45
			C76.053,72.739,77.598,74.284,77.598,76.19z"/>
		<path class="st13" d="M48.235,86.447c0,2.454-2.661,4.443-5.944,4.443c-3.282,0-5.943-1.989-5.943-4.443
			c0-2.454,2.661-4.443,5.943-4.443C45.574,82.004,48.235,83.993,48.235,86.447z"/>
		<path class="st13" d="M86.987,86.447c0,2.454-2.661,4.443-5.943,4.443c-3.282,0-5.943-1.989-5.943-4.443
			c0-2.454,2.661-4.443,5.943-4.443C84.326,82.004,86.987,83.993,86.987,86.447z"/>
		<path class="st4" d="M62.076,33.438c-20.206,0-36.587,15.661-36.587,34.98c0,2.044,0.37,3.568,1.057,5.471
			c0.324,0.897,5.563-1.968,6.009-2.283c2.231-1.571,4.054-3.699,5.416-6.053c0.563-0.979,1.033-1.974,1.411-2.97
			c1.206-3.178,4.483-12.02,7.81-11.326c4.462,0.93,9.519,1.456,14.883,1.456c5.365,0,10.422-0.526,14.883-1.456
			c3.327-0.694,6.604,8.148,7.81,11.326c0.378,0.996,0.848,1.992,1.411,2.971c2.251,3.893,6.053,7.6,10.677,8.274
			c0.012-0.224,0.294-0.3,0.504-0.376c1.514-0.55,1.302-3.821,1.302-5.035C98.663,49.099,82.282,33.438,62.076,33.438z"/>
		<path class="st3" d="M26.829,75.544c-0.209,0-0.399-0.024-0.565-0.076c-0.533-0.168-0.944-0.558-1.129-1.069
			c-0.688-1.905-1.146-3.652-1.146-5.98c0-20.115,17.086-36.481,38.087-36.481c21.001,0,38.087,16.365,38.087,36.48l0.004,0.387
			c0.026,1.788,0.075,5.091-2.184,6.016c-0.053,0.06-0.111,0.117-0.174,0.169c-0.326,0.267-0.75,0.383-1.168,0.324
			c-4.481-0.654-8.877-4.021-11.759-9.008c-0.594-1.031-1.103-2.103-1.515-3.188l-0.077-0.202
			c-3.826-10.094-5.689-10.254-6.025-10.188c-4.736,0.987-9.847,1.487-15.189,1.487c-5.343,0-10.454-0.5-15.189-1.487
			c-0.335-0.067-2.199,0.093-6.025,10.188l-0.077,0.202c-0.412,1.085-0.921,2.157-1.514,3.187c-1.541,2.663-3.565,4.92-5.853,6.531
			C33.374,72.865,29.043,75.544,26.829,75.544z M62.076,34.938c-19.347,0-35.087,15.019-35.087,33.481
			c0,1.516,0.225,2.684,0.624,3.953c1.279-0.467,3.552-1.643,4.09-1.999c1.924-1.354,3.646-3.283,4.97-5.569
			c0.512-0.888,0.952-1.814,1.307-2.751l0.076-0.2c2.559-6.754,5.473-12.898,9.443-12.062c4.535,0.945,9.44,1.424,14.577,1.424
			c5.138,0,10.043-0.479,14.577-1.424c3.97-0.826,6.883,5.308,9.443,12.062l0.076,0.2c0.355,0.937,0.795,1.863,1.309,2.754
			c2.278,3.94,5.579,6.666,8.937,7.417c0.117-0.06,0.245-0.115,0.387-0.165c0.167-0.173,0.397-0.9,0.363-3.21l-0.004-0.431
			C97.163,49.957,81.423,34.938,62.076,34.938z"/>
		
			<rect x="47.017" y="125.698" transform="matrix(0.7986 -0.6019 0.6019 0.7986 -72.2342 58.6616)" class="st4" width="9.037" height="23.132"/>
		<path class="st3" d="M54.89,150.72c-0.455,0-0.904-0.206-1.199-0.598l-13.922-18.473c-0.24-0.317-0.343-0.717-0.288-1.111
			c0.055-0.394,0.265-0.749,0.582-0.989l7.217-5.438c0.317-0.239,0.718-0.342,1.111-0.288c0.394,0.055,0.75,0.265,0.989,0.582
			l13.922,18.474c0.499,0.661,0.367,1.602-0.295,2.101l-7.216,5.438C55.521,150.621,55.204,150.72,54.89,150.72z M43.067,131.042
			l12.117,16.077l4.821-3.633l-12.116-16.078L43.067,131.042z"/>
		
			<rect x="68.097" y="125.698" transform="matrix(-0.7986 -0.6019 0.6019 -0.7986 47.9947 290.5879)" class="st4" width="9.037" height="23.132"/>
		<path class="st3" d="M69.262,150.72c-0.314,0-0.631-0.099-0.902-0.302l-7.217-5.438c-0.318-0.239-0.527-0.596-0.583-0.989
			c-0.055-0.395,0.048-0.794,0.288-1.111l13.922-18.474c0.239-0.318,0.595-0.527,0.989-0.582c0.392-0.055,0.793,0.048,1.111,0.288
			l7.217,5.438c0.662,0.499,0.793,1.439,0.295,2.101l-13.922,18.473C70.166,150.514,69.717,150.72,69.262,150.72z M64.147,143.486
			l4.821,3.633l12.116-16.077l-4.821-3.633L64.147,143.486z"/>
		<path class="st3" d="M33.582,170.826c-0.829,0-1.5-0.672-1.5-1.5v-14.515c0-0.828,0.671-1.5,1.5-1.5c0.829,0,1.5,0.672,1.5,1.5
			v14.515C35.082,170.154,34.411,170.826,33.582,170.826z"/>
		<path class="st3" d="M90.568,170.826c-0.829,0-1.5-0.672-1.5-1.5v-14.515c0-0.828,0.671-1.5,1.5-1.5c0.829,0,1.5,0.672,1.5,1.5
			v14.515C92.068,170.154,91.397,170.826,90.568,170.826z"/>
		<path class="st4" d="M31.765,40.303c6,7.556,13.178,15.611,21.847,18.076c13.963,3.97,38.677-0.983,38.677-21.08
			c0-12.852-10.772-28.384-30.874-16.557c-24.918,14.659-39.381-13.52-39.381-0.669c0,4.062,1.637,8.113,3.785,11.8L31.765,40.303z"
			/>
		<path class="st3" d="M63.383,61.136c-3.687,0-7.195-0.466-10.181-1.314c-8.913-2.534-16.135-10.43-22.612-18.586
			c-0.017-0.022-0.035-0.045-0.051-0.068l-5.947-8.43c-0.025-0.036-0.048-0.072-0.07-0.109c-2.685-4.606-3.989-8.713-3.989-12.555
			c0-1.688,0.196-3.737,1.728-4.604c1.812-1.028,3.93,0.245,7.138,2.168c6.358,3.813,17.001,10.196,31.255,1.812
			c10.798-6.351,18.295-4.696,22.681-2.187c7.222,4.13,10.454,13.039,10.455,20.037c0,7.095-2.966,13.086-8.578,17.325
			C79.154,59.199,70.899,61.136,63.383,61.136z M32.966,39.403c6.158,7.751,12.971,15.233,21.056,17.532
			c8.358,2.377,21.134,1.523,29.381-4.706c4.901-3.702,7.386-8.726,7.386-14.931c0-6.131-2.766-13.899-8.944-17.433
			c-5.302-3.032-12.104-2.282-19.67,2.169c-15.788,9.288-27.844,2.059-34.32-1.825c-1.516-0.909-3.38-2.027-4.089-2.095
			c-0.082,0.192-0.233,0.715-0.233,1.958c0,3.282,1.161,6.877,3.549,10.989L32.966,39.403z"/>
		<path class="st3" d="M61.666,106.761c-5.189,0-8.931-2.333-11.122-6.935c-0.356-0.748-0.038-1.643,0.71-1.999
			c0.748-0.355,1.643-0.038,1.999,0.71c1.696,3.563,4.37,5.224,8.413,5.224c5.103,0,7.702-3.339,8.363-5.105
			c0.29-0.776,1.154-1.171,1.931-0.879c0.776,0.291,1.169,1.155,0.879,1.931C71.566,103.105,67.528,106.761,61.666,106.761z"/>
		<path class="st7" d="M239.24,150.96v18.364h-89.814V150.96c0-11.193,9.072-20.265,20.265-20.265h13.397v-8.747h0.227
			c3.688,2.598,7.452,4.128,11.019,4.128c3.718,0,7.55-1.515,11.253-4.082v8.701h13.389
			C230.168,130.695,239.24,139.767,239.24,150.96z"/>
		<path class="st3" d="M239.24,170.824h-89.814c-0.829,0-1.5-0.672-1.5-1.5V150.96c0-12.001,9.764-21.765,21.765-21.765h11.896
			v-7.247c0-0.829,0.671-1.5,1.5-1.5h0.227c0.309,0,0.611,0.096,0.864,0.274c3.63,2.558,7.047,3.854,10.155,3.854
			c3.249,0,6.748-1.284,10.399-3.815c0.458-0.318,1.056-0.354,1.55-0.096c0.494,0.259,0.804,0.771,0.804,1.329v7.202h11.889
			c12.002,0,21.765,9.764,21.765,21.765v18.364C240.74,170.152,240.069,170.824,239.24,170.824z M150.926,167.824h86.814V150.96
			c0-10.347-8.418-18.765-18.765-18.765h-13.389c-0.829,0-1.5-0.672-1.5-1.5v-5.982c-3.344,1.901-6.615,2.863-9.753,2.863
			c-3.092,0-6.361-1.013-9.746-3.016v6.135c0,0.828-0.671,1.5-1.5,1.5h-13.396c-10.347,0-18.765,8.418-18.765,18.765V167.824z"/>
		<path class="st14" d="M239.241,150.954v18.372h-89.814v-18.372c0-11.193,9.072-20.265,20.265-20.265h4.021l-0.083,0.061
			l13.926,18.47l7.186-5.415l7.187,5.415l13.926-18.47l-0.083-0.061h3.203C230.168,130.689,239.241,139.762,239.241,150.954z"/>
		<path class="st3" d="M239.241,170.826h-89.814c-0.829,0-1.5-0.672-1.5-1.5v-18.372c0-12.001,9.764-21.765,21.765-21.765h4.021
			c0.649,0,1.225,0.418,1.426,1.035c0.006,0.02,0.012,0.039,0.018,0.06l12.694,16.835l5.989-4.512c0.534-0.402,1.271-0.402,1.805,0
			l5.99,4.512l12.693-16.834c0.005-0.02,0.011-0.039,0.018-0.059c0.201-0.618,0.777-1.037,1.427-1.037h3.204
			c12.001,0,21.765,9.764,21.765,21.765v18.372C240.741,170.154,240.069,170.826,239.241,170.826z M150.926,167.826h86.814v-16.872
			c0-10.347-8.418-18.765-18.765-18.765h-2.327l-13.522,17.934c-0.5,0.66-1.44,0.792-2.1,0.295l-6.285-4.734l-6.284,4.734
			c-0.66,0.497-1.601,0.365-2.1-0.295l-13.522-17.934h-3.145c-10.347,0-18.765,8.418-18.765,18.765V167.826z"/>
		
			<ellipse transform="matrix(0.9246 -0.3808 0.3808 0.9246 -18.6195 66.8189)" class="st12" cx="159.536" cy="80.459" rx="7.974" ry="7.974"/>
		<path class="st3" d="M159.536,89.933c-5.224,0-9.474-4.25-9.474-9.474c0-5.224,4.25-9.474,9.474-9.474
			c5.224,0,9.474,4.25,9.474,9.474C169.009,85.683,164.759,89.933,159.536,89.933z M159.536,73.985
			c-3.569,0-6.474,2.904-6.474,6.474c0,3.569,2.904,6.474,6.474,6.474c3.569,0,6.474-2.904,6.474-6.474
			C166.009,76.89,163.105,73.985,159.536,73.985z"/>
		
			<ellipse transform="matrix(0.6687 -0.7436 0.7436 0.6687 16.0952 197.0379)" class="st12" cx="229.133" cy="80.459" rx="7.974" ry="7.974"/>
		<path class="st3" d="M229.133,89.933c-5.224,0-9.474-4.25-9.474-9.474c0-5.224,4.25-9.474,9.474-9.474
			c5.224,0,9.474,4.25,9.474,9.474C238.607,85.683,234.357,89.933,229.133,89.933z M229.133,73.985c-3.57,0-6.474,2.904-6.474,6.474
			c0,3.569,2.904,6.474,6.474,6.474c3.569,0,6.474-2.904,6.474-6.474C235.607,76.89,232.703,73.985,229.133,73.985z"/>
		<path class="st7" d="M229.683,76.589c0,19.522-18.802,49.488-35.349,49.488c-15.795,0-35.349-29.966-35.349-49.488
			c0-19.523,15.826-35.349,35.349-35.349C213.857,41.24,229.683,57.066,229.683,76.589z"/>
		<path class="st3" d="M194.334,127.577c-7.845,0-16.896-6.587-24.832-18.07c-7.413-10.727-12.017-23.34-12.017-32.917
			c0-20.319,16.53-36.849,36.849-36.849c20.318,0,36.849,16.53,36.849,36.849c0,9.684-4.495,22.293-11.73,32.91
			C211.623,120.987,202.468,127.577,194.334,127.577z M194.334,42.74c-18.665,0-33.849,15.185-33.849,33.849
			c0,18.234,18.91,47.988,33.849,47.988c7.021,0,15.484-6.269,22.64-16.768c6.914-10.145,11.208-22.107,11.208-31.22
			C228.183,57.924,212.998,42.74,194.334,42.74z"/>
		<path class="st3" d="M185.304,76.19c0,1.906-1.545,3.45-3.45,3.45s-3.45-1.545-3.45-3.45c0-1.905,1.545-3.45,3.45-3.45
			S185.304,74.284,185.304,76.19z"/>
		<path class="st3" d="M210.265,76.19c0,1.906-1.545,3.45-3.45,3.45s-3.45-1.545-3.45-3.45c0-1.905,1.545-3.45,3.45-3.45
			S210.265,74.284,210.265,76.19z"/>
		<path class="st13" d="M180.902,86.447c0,2.454-2.661,4.443-5.943,4.443c-3.282,0-5.943-1.989-5.943-4.443
			c0-2.454,2.661-4.443,5.943-4.443C178.241,82.004,180.902,83.993,180.902,86.447z"/>
		<path class="st13" d="M219.653,86.447c0,2.454-2.661,4.443-5.943,4.443c-3.282,0-5.943-1.989-5.943-4.443
			c0-2.454,2.661-4.443,5.943-4.443C216.992,82.004,219.653,83.993,219.653,86.447z"/>
		<path class="st4" d="M194.742,33.438c-20.206,0-36.587,15.661-36.587,34.98c0,2.044,0.37,3.568,1.057,5.471
			c0.324,0.897,5.563-1.968,6.009-2.283c2.231-1.571,4.054-3.699,5.416-6.053c0.563-0.979,1.033-1.974,1.411-2.97
			c1.206-3.178,4.483-12.02,7.81-11.326c4.462,0.93,9.519,1.456,14.883,1.456c5.365,0,10.422-0.526,14.883-1.456
			c3.327-0.694,6.604,8.148,7.81,11.326c0.378,0.996,0.848,1.992,1.411,2.971c2.25,3.893,6.052,7.6,10.677,8.274
			c0.011-0.224,0.294-0.3,0.504-0.376c1.514-0.55,1.301-3.821,1.301-5.035C231.329,49.099,214.949,33.438,194.742,33.438z"/>
		<path class="st3" d="M159.495,75.544c-0.209,0-0.399-0.024-0.565-0.076c-0.533-0.168-0.944-0.558-1.128-1.068
			c-0.688-1.904-1.146-3.65-1.146-5.98c0-20.116,17.086-36.481,38.087-36.481s38.087,16.365,38.087,36.48l0.004,0.387
			c0.026,1.788,0.075,5.091-2.184,6.016c-0.053,0.06-0.111,0.117-0.174,0.169c-0.326,0.267-0.748,0.384-1.168,0.324
			c-4.481-0.654-8.877-4.021-11.759-9.008c-0.594-1.031-1.103-2.103-1.515-3.188l-0.077-0.202
			c-3.826-10.094-5.694-10.254-6.025-10.188c-4.736,0.987-9.847,1.487-15.189,1.487c-5.343,0-10.454-0.5-15.189-1.487
			c-0.331-0.062-2.2,0.094-6.026,10.191l-0.075,0.198c-0.413,1.086-0.922,2.159-1.514,3.187c-1.541,2.663-3.564,4.92-5.852,6.531
			C166.041,72.865,161.706,75.544,159.495,75.544z M194.742,34.938c-19.347,0-35.087,15.019-35.087,33.481
			c0.001,1.517,0.225,2.685,0.625,3.953c1.279-0.467,3.552-1.644,4.091-1.999c1.923-1.354,3.645-3.283,4.969-5.569
			c0.511-0.887,0.952-1.814,1.308-2.751l0.075-0.196c2.56-6.755,5.477-12.89,9.443-12.065c4.535,0.945,9.439,1.424,14.577,1.424
			s10.042-0.479,14.577-1.424c3.969-0.826,6.883,5.308,9.443,12.062l0.076,0.2c0.355,0.937,0.795,1.863,1.309,2.754
			c2.278,3.94,5.579,6.666,8.937,7.417c0.117-0.06,0.245-0.115,0.387-0.165c0.167-0.173,0.397-0.9,0.363-3.21l-0.004-0.431
			C229.83,49.957,214.089,34.938,194.742,34.938z"/>
		
			<rect x="179.684" y="125.698" transform="matrix(0.7986 -0.6019 0.6019 0.7986 -45.5157 138.5066)" class="st4" width="9.037" height="23.132"/>
		<path class="st3" d="M187.556,150.72c-0.455,0-0.904-0.206-1.199-0.598l-13.922-18.473c-0.24-0.317-0.343-0.717-0.288-1.111
			c0.055-0.394,0.265-0.749,0.583-0.989l7.217-5.438c0.318-0.239,0.719-0.342,1.111-0.288c0.394,0.055,0.75,0.265,0.989,0.582
			l13.922,18.474c0.499,0.661,0.367,1.602-0.295,2.101l-7.216,5.438C188.187,150.621,187.871,150.72,187.556,150.72z
			 M175.733,131.042l12.117,16.077l4.821-3.633l-12.116-16.078L175.733,131.042z"/>
		
			<rect x="200.764" y="125.698" transform="matrix(-0.7986 -0.6019 0.6019 -0.7986 286.6064 370.4347)" class="st4" width="9.036" height="23.132"/>
		<path class="st3" d="M201.929,150.72c-0.314,0-0.631-0.099-0.902-0.302l-7.217-5.438c-0.318-0.239-0.527-0.596-0.583-0.989
			c-0.055-0.395,0.048-0.794,0.288-1.111l13.922-18.474c0.239-0.318,0.595-0.527,0.989-0.582c0.393-0.055,0.794,0.048,1.111,0.288
			l7.216,5.438c0.662,0.499,0.793,1.439,0.295,2.101l-13.922,18.473C202.833,150.514,202.383,150.72,201.929,150.72z
			 M196.813,143.486l4.821,3.633l12.116-16.077l-4.821-3.633L196.813,143.486z"/>
		<path class="st3" d="M166.249,170.826c-0.829,0-1.5-0.672-1.5-1.5v-14.515c0-0.828,0.671-1.5,1.5-1.5c0.829,0,1.5,0.672,1.5,1.5
			v14.515C167.749,170.154,167.078,170.826,166.249,170.826z"/>
		<path class="st3" d="M223.235,170.826c-0.829,0-1.5-0.672-1.5-1.5v-14.515c0-0.828,0.671-1.5,1.5-1.5c0.829,0,1.5,0.672,1.5,1.5
			v14.515C224.735,170.154,224.064,170.826,223.235,170.826z"/>
		<path class="st3" d="M194.333,106.761c-5.189,0-8.931-2.333-11.122-6.935c-0.356-0.748-0.038-1.643,0.71-1.999
			c0.749-0.355,1.643-0.038,1.999,0.71c1.696,3.563,4.37,5.224,8.413,5.224c5.102,0,7.702-3.339,8.363-5.105
			c0.29-0.776,1.154-1.171,1.931-0.879c0.776,0.291,1.169,1.155,0.879,1.931C204.233,103.105,200.194,106.761,194.333,106.761z"/>
		<path class="st15" d="M233.533,39.223c0,0-17.087,17.939-38.165,17.939c-21.078,0-28.668-8.032-28.668-17.939
			s7.59-17.939,28.668-17.939C216.446,21.284,233.533,39.223,233.533,39.223z"/>
		<path class="st3" d="M195.368,58.663c-26.249,0-30.168-12.179-30.168-19.44c0-7.26,3.919-19.439,30.168-19.439
			c21.474,0,38.536,17.653,39.251,18.405c0.552,0.58,0.552,1.49,0,2.069C233.903,41.01,216.842,58.663,195.368,58.663z
			 M195.368,22.784c-17.773,0-27.168,5.685-27.168,16.439c0,10.755,9.395,16.44,27.168,16.44c17.297,0,32.034-12.682,36.02-16.438
			C227.396,35.468,212.638,22.784,195.368,22.784z"/>
		<rect x="89.784" y="140.254" class="st4" width="75.867" height="86.835"/>
		<path class="st3" d="M165.65,228.589H89.784c-0.829,0-1.5-0.672-1.5-1.5v-86.835c0-0.828,0.671-1.5,1.5-1.5h75.866
			c0.829,0,1.5,0.672,1.5,1.5v86.835C167.15,227.917,166.479,228.589,165.65,228.589z M91.284,225.589h72.866v-83.835H91.284
			V225.589z"/>
		<path class="st7" d="M173.126,239.468v-9.191c0-11.193-9.072-20.265-20.265-20.265h-13.389v-8.701
			c-3.703,2.567-7.535,4.082-11.253,4.082c-3.567,0-7.33-1.53-11.019-4.128h-0.227v8.747h-13.397
			c-11.193,0-20.265,9.072-20.265,20.265v9.191H173.126z"/>
		<path class="st3" d="M173.126,240.968H83.312c-0.829,0-1.5-0.672-1.5-1.5v-9.191c0-12.001,9.764-21.765,21.765-21.765h11.896
			v-7.247c0-0.828,0.671-1.5,1.5-1.5h0.227c0.309,0,0.611,0.096,0.864,0.273c3.631,2.558,7.047,3.854,10.155,3.854
			c3.249,0,6.748-1.283,10.399-3.814c0.458-0.319,1.056-0.355,1.55-0.097c0.494,0.259,0.804,0.771,0.804,1.329v7.201h11.889
			c12.001,0,21.765,9.764,21.765,21.765v9.191C174.626,240.296,173.955,240.968,173.126,240.968z M84.812,237.968h86.814v-7.691
			c0-10.347-8.418-18.765-18.765-18.765h-13.389c-0.829,0-1.5-0.672-1.5-1.5v-5.982c-3.344,1.901-6.615,2.863-9.753,2.863
			c-3.092,0-6.361-1.014-9.746-3.016v6.135c0,0.828-0.671,1.5-1.5,1.5h-13.396c-10.347,0-18.765,8.418-18.765,18.765V237.968z"/>
		<path class="st8" d="M173.127,239.468v-9.197c0-11.193-9.072-20.265-20.265-20.265h-3.203l0.083,0.061l-13.926,18.47l-7.187-5.415
			l-7.187,5.415l-13.927-18.47l0.083-0.061h-4.021c-11.192,0-20.265,9.073-20.265,20.265v9.197H173.127z"/>
		<path class="st3" d="M173.127,240.968H83.312c-0.829,0-1.5-0.672-1.5-1.5v-9.197c0-12.001,9.764-21.765,21.765-21.765h4.021
			c0.649,0,1.225,0.418,1.426,1.035c0.006,0.02,0.012,0.039,0.018,0.06l12.694,16.835l5.989-4.512c0.534-0.402,1.271-0.402,1.805,0
			l5.99,4.512l12.693-16.834c0.005-0.02,0.011-0.039,0.017-0.059c0.201-0.618,0.777-1.037,1.427-1.037h3.204
			c12.002,0,21.765,9.764,21.765,21.765v9.197C174.627,240.296,173.956,240.968,173.127,240.968z M84.812,237.968h86.815v-7.697
			c0-10.347-8.418-18.765-18.765-18.765h-2.327l-13.522,17.934c-0.499,0.66-1.439,0.791-2.1,0.295L128.628,225l-6.284,4.734
			c-0.66,0.496-1.601,0.365-2.1-0.295l-13.522-17.934h-3.145c-10.347,0-18.765,8.418-18.765,18.765V237.968z"/>
		
			<ellipse transform="matrix(0.9925 -0.1219 0.1219 0.9925 -18.787 12.585)" class="st12" cx="93.422" cy="159.776" rx="7.974" ry="7.974"/>
		<path class="st3" d="M93.422,169.25c-5.224,0-9.474-4.25-9.474-9.474c0-5.225,4.25-9.475,9.474-9.475
			c5.224,0,9.474,4.25,9.474,9.475C102.895,165,98.645,169.25,93.422,169.25z M93.422,153.302c-3.569,0-6.474,2.904-6.474,6.475
			c0,3.569,2.904,6.474,6.474,6.474c3.569,0,6.474-2.904,6.474-6.474C99.895,156.206,96.991,153.302,93.422,153.302z"/>
		<path class="st12" d="M170.993,159.776c0,4.404-3.57,7.974-7.974,7.974c-4.404,0-7.974-3.57-7.974-7.974s3.57-7.974,7.974-7.974
			C167.423,151.802,170.993,155.372,170.993,159.776z"/>
		<path class="st3" d="M163.019,169.25c-5.224,0-9.474-4.25-9.474-9.474c0-5.225,4.25-9.475,9.474-9.475
			c5.224,0,9.474,4.25,9.474,9.475C172.493,165,168.243,169.25,163.019,169.25z M163.019,153.302c-3.569,0-6.474,2.904-6.474,6.475
			c0,3.569,2.904,6.474,6.474,6.474c3.569,0,6.474-2.904,6.474-6.474C169.493,156.206,166.589,153.302,163.019,153.302z"/>
		<path class="st7" d="M163.569,155.905c0,19.522-18.802,49.488-35.349,49.488c-15.795,0-35.349-29.966-35.349-49.488
			c0-19.523,15.826-35.349,35.349-35.349S163.569,136.383,163.569,155.905z"/>
		<path class="st3" d="M128.221,206.894c-7.845,0-16.896-6.587-24.831-18.07c-7.413-10.727-12.017-23.341-12.017-32.918
			c0-20.318,16.53-36.849,36.849-36.849s36.849,16.53,36.849,36.849c0,9.684-4.495,22.294-11.729,32.91
			C145.509,200.305,136.354,206.894,128.221,206.894z M128.221,122.057c-18.664,0-33.849,15.185-33.849,33.849
			c0,18.234,18.91,47.988,33.849,47.988c7.021,0,15.484-6.269,22.64-16.768c6.914-10.145,11.209-22.107,11.209-31.221
			C162.069,137.241,146.885,122.057,128.221,122.057z"/>
		<path class="st3" d="M119.191,155.506c0,1.906-1.545,3.45-3.45,3.45c-1.905,0-3.45-1.545-3.45-3.45c0-1.905,1.545-3.45,3.45-3.45
			C117.646,152.056,119.191,153.601,119.191,155.506z"/>
		<circle class="st3" cx="140.701" cy="155.506" r="3.45"/>
		<path class="st13" d="M114.788,165.764c0,2.454-2.661,4.443-5.943,4.443c-3.282,0-5.943-1.989-5.943-4.443
			c0-2.454,2.661-4.443,5.943-4.443C112.127,161.321,114.788,163.31,114.788,165.764z"/>
		<path class="st13" d="M153.54,165.764c0,2.454-2.661,4.443-5.943,4.443c-3.282,0-5.943-1.989-5.943-4.443
			c0-2.454,2.661-4.443,5.943-4.443C150.879,161.321,153.54,163.31,153.54,165.764z"/>
		
			<rect x="113.57" y="205.015" transform="matrix(0.7986 -0.6019 0.6019 0.7986 -106.5673 114.6894)" class="st4" width="9.037" height="23.132"/>
		<path class="st3" d="M121.442,230.036c-0.455,0-0.904-0.206-1.199-0.598l-13.922-18.473c-0.24-0.317-0.343-0.717-0.288-1.111
			c0.055-0.394,0.265-0.75,0.582-0.989l7.217-5.438c0.661-0.497,1.602-0.366,2.101,0.296l13.922,18.473
			c0.24,0.317,0.343,0.717,0.288,1.111c-0.055,0.394-0.265,0.75-0.583,0.989l-7.217,5.439
			C122.074,229.938,121.757,230.036,121.442,230.036z M109.62,210.358l12.117,16.077l4.821-3.633l-12.117-16.077L109.62,210.358z"/>
		
			<rect x="134.65" y="205.015" transform="matrix(-0.7986 -0.6019 0.6019 -0.7986 119.9568 473.3021)" class="st4" width="9.036" height="23.132"/>
		<path class="st3" d="M135.815,230.036c-0.314,0-0.631-0.099-0.902-0.302l-7.217-5.439c-0.318-0.239-0.527-0.596-0.582-0.989
			c-0.055-0.395,0.048-0.794,0.288-1.111l13.922-18.473c0.499-0.662,1.439-0.793,2.101-0.296l7.216,5.438
			c0.318,0.24,0.527,0.596,0.582,0.989c0.055,0.394-0.048,0.794-0.288,1.111l-13.922,18.473
			C136.719,229.83,136.269,230.036,135.815,230.036z M130.7,222.803l4.821,3.633l12.116-16.077l-4.821-3.633L130.7,222.803z"/>
		<path class="st3" d="M128.22,186.078c-5.19,0-8.932-2.333-11.122-6.936c-0.356-0.748-0.038-1.643,0.71-1.999
			c0.747-0.353,1.643-0.038,1.999,0.71c1.696,3.564,4.37,5.225,8.413,5.225c5.102,0,7.701-3.34,8.362-5.106
			c0.291-0.776,1.154-1.171,1.931-0.878c0.776,0.29,1.169,1.154,0.879,1.931C138.12,182.422,134.081,186.078,128.22,186.078z"/>
		<path class="st4" d="M168.45,142.902c0,3.637-0.471,7.163-1.362,10.519c-9.054-4.384-17.666-9.765-25.645-15.849
			c-2.341-1.782-4.645-3.637-6.846-5.604c-2.701-2.38-5.256-4.946-7.56-7.725c-5.013-6.062-8.693-13.025-11.807-20.277
			c3.931-1.279,8.126-1.966,12.484-1.966c11.652,0,22.164,4.916,29.591,12.796C164.217,122.122,168.45,132.013,168.45,142.902z"/>
		<path class="st3" d="M167.088,154.922c-0.224,0-0.447-0.05-0.654-0.15c-8.923-4.32-17.637-9.706-25.901-16.007
			c-2.639-2.008-4.908-3.865-6.936-5.678c-2.896-2.551-5.494-5.206-7.715-7.886c-4.495-5.435-8.317-11.994-12.031-20.643
			c-0.166-0.387-0.162-0.827,0.012-1.211c0.174-0.384,0.501-0.677,0.902-0.807c4.16-1.354,8.517-2.04,12.948-2.04
			c11.722,0,22.619,4.712,30.683,13.268c7.449,7.896,11.552,18.243,11.552,29.135c0,3.706-0.475,7.375-1.412,10.904
			c-0.115,0.433-0.417,0.792-0.824,0.979C167.515,154.876,167.301,154.922,167.088,154.922z M117.281,104.914
			c3.385,7.621,6.874,13.49,10.912,18.373c2.121,2.559,4.609,5.101,7.396,7.555c1.976,1.767,4.186,3.575,6.762,5.536
			c7.587,5.785,15.558,10.781,23.717,14.868c0.585-2.722,0.882-5.521,0.882-8.345c0-10.123-3.812-19.739-10.735-27.077
			c-7.492-7.949-17.613-12.326-28.5-12.326C124.16,103.5,120.657,103.975,117.281,104.914z"/>
		<path class="st4" d="M157.305,114.796c-7.008,6.416-14.633,12.094-22.708,17.173c-14.317,9.011-30.018,16.123-46.086,22.044
			c-0.994-3.534-1.524-7.259-1.524-11.111c0-18.215,11.858-33.65,28.244-38.936c3.931-1.279,8.126-1.966,12.484-1.966
			C139.367,102,149.878,106.916,157.305,114.796z"/>
		<path class="st3" d="M88.511,155.513c-0.234,0-0.468-0.055-0.682-0.164c-0.373-0.189-0.649-0.527-0.762-0.93
			c-1.048-3.725-1.58-7.6-1.58-11.517c0-18.493,11.768-34.713,29.283-40.364c4.157-1.352,8.513-2.039,12.945-2.039
			c11.722,0,22.619,4.712,30.683,13.268c0.275,0.292,0.422,0.683,0.407,1.084c-0.015,0.401-0.19,0.78-0.486,1.051
			c-6.755,6.185-14.468,12.018-22.923,17.335c-13.142,8.272-28.309,15.528-46.367,22.182
			C88.861,155.482,88.686,155.513,88.511,155.513z M127.715,103.5c-4.116,0-8.16,0.637-12.021,1.893
			c-16.275,5.25-27.207,20.324-27.207,37.51c0,3.091,0.356,6.153,1.06,9.126c17.177-6.422,31.665-13.407,44.252-21.329
			c7.827-4.923,15.001-10.29,21.345-15.968C147.772,107.476,138.091,103.5,127.715,103.5z"/>
		<path class="st14" d="M47.691,201.74c0,0,3.408,12.659,13.222,13.246c0,0-13.1,4.525-13.321,14.202
			c0,0-2.579-13.572-12.925-14.059C34.666,215.13,46.717,213.304,47.691,201.74z"/>
		<path class="st3" d="M47.59,230.689c-0.712,0-1.335-0.506-1.472-1.217c-0.024-0.125-2.495-12.418-11.523-12.844
			c-0.77-0.036-1.387-0.65-1.427-1.421c-0.04-0.77,0.511-1.444,1.273-1.561c0.441-0.068,10.894-1.817,11.755-12.032
			c0.061-0.726,0.634-1.301,1.359-1.367c0.72-0.066,1.393,0.398,1.583,1.102c0.032,0.116,3.259,11.626,11.864,12.142
			c0.714,0.043,1.297,0.584,1.396,1.292c0.098,0.708-0.319,1.388-0.994,1.622c-0.121,0.042-12.118,4.311-12.313,12.819
			c-0.018,0.767-0.61,1.395-1.375,1.46C47.674,230.686,47.632,230.689,47.59,230.689z M39.849,214.959
			c3.879,1.969,6.23,5.746,7.587,8.877c2.027-4.022,5.942-6.787,8.949-8.428c-4.135-1.843-6.783-5.651-8.334-8.723
			C46.258,211.045,42.78,213.554,39.849,214.959z"/>
		<path class="st14" d="M25.992,218.721c0,0,2.411,8.954,9.352,9.369c0,0-9.266,3.201-9.422,10.046c0,0-1.824-9.6-9.142-9.944
			C16.779,228.192,25.303,226.9,25.992,218.721z"/>
		<path class="st3" d="M25.92,239.636c-0.714,0-1.337-0.507-1.473-1.22c-0.016-0.082-1.704-8.442-7.739-8.727
			c-0.77-0.036-1.387-0.65-1.427-1.421c-0.04-0.77,0.511-1.444,1.273-1.561c0.296-0.047,7.364-1.242,7.942-8.113
			c0.061-0.726,0.635-1.303,1.36-1.368c0.724-0.065,1.392,0.399,1.582,1.102l0,0c0.021,0.079,2.228,7.92,7.994,8.265
			c0.714,0.042,1.299,0.584,1.396,1.293c0.098,0.709-0.319,1.388-0.996,1.622c-0.081,0.028-8.282,2.953-8.413,8.662
			c-0.018,0.768-0.611,1.397-1.376,1.461C26.003,239.634,25.961,239.636,25.92,239.636z M21.402,228.108
			c2.106,1.332,3.523,3.395,4.447,5.279c1.376-2.232,3.515-3.872,5.365-4.973c-2.287-1.268-3.884-3.35-4.941-5.224
			C25.099,225.479,23.257,227.067,21.402,228.108z"/>
		<path class="st14" d="M25.992,192.064c0,0,2.411,8.954,9.352,9.369c0,0-9.266,3.201-9.422,10.045c0,0-1.824-9.6-9.142-9.944
			C16.779,201.534,25.303,200.243,25.992,192.064z"/>
		<path class="st3" d="M25.92,212.979c-0.713,0-1.337-0.508-1.472-1.22c-0.016-0.082-1.704-8.442-7.739-8.727
			c-0.771-0.036-1.388-0.65-1.428-1.421c-0.04-0.77,0.511-1.444,1.273-1.561c0.296-0.047,7.364-1.243,7.942-8.113
			c0.061-0.726,0.635-1.303,1.36-1.368c0.727-0.066,1.392,0.399,1.582,1.102l0,0c0.021,0.079,2.228,7.92,7.994,8.265
			c0.714,0.042,1.299,0.584,1.396,1.293c0.098,0.709-0.319,1.388-0.996,1.622c-0.081,0.028-8.282,2.953-8.413,8.662
			c-0.018,0.768-0.611,1.398-1.376,1.461C26.003,212.977,25.961,212.979,25.92,212.979z M21.402,201.45
			c2.107,1.333,3.523,3.395,4.447,5.28c1.376-2.232,3.515-3.872,5.365-4.973c-2.287-1.268-3.884-3.35-4.941-5.224
			C25.099,198.821,23.257,200.409,21.402,201.45z"/>
		<path class="st16" d="M88.28,167.722v0.1H72.57v-0.1c-2.6-1.69-4.33-4.62-4.33-7.95c0-2.61,1.07-4.99,2.79-6.7
			c-0.24-0.96-0.45-1.93-0.61-2.91c0.02-0.01,0.03-0.03,0.04-0.04l0.48-0.63l13.04-17.3h2.33c0.19,0,0.37,0.02,0.55,0.02
			c-0.89,3.45-1.37,7.05-1.37,10.74c0,3.43,0.43,6.82,1.25,10.12c-1.72,1.71-2.79,4.09-2.79,6.7
			C83.95,163.102,85.68,166.032,88.28,167.722z"/>
		<path class="st17" d="M237.74,150.952v16.87h-13v-13.01c0-0.83-0.68-1.5-1.5-1.5c-0.5,0-0.94,0.24-1.21,0.62v-2.98
			c0-6.33-3.15-11.94-7.97-15.33l2.59-3.43h2.33C229.32,132.192,237.74,140.602,237.74,150.952z"/>
		<path class="st18" d="M171.63,230.272v7.7h-15.71v-7.7c0-6.33-3.15-11.94-7.97-15.34l2.59-3.43h2.32
			C163.21,211.502,171.63,219.922,171.63,230.272z"/>
	</g>
</g>
</svg>
